<svg xmlns="http://www.w3.org/2000/svg" width="1200" height="720" viewBox="0 0 1200 720" role="img" aria-label="Community first aid refill campaign">
  <defs>
    <linearGradient id="bg" x1="0" y1="0" x2="1" y2="1">
      <stop offset="0%" stop-color="#163142"/>
      <stop offset="100%" stop-color="#2f6b7b"/>
    </linearGradient>
  </defs>
  <rect width="1200" height="720" fill="url(#bg)"/>
  <rect x="120" y="120" width="960" height="480" rx="26" fill="#eef5f8"/>
  <rect x="190" y="220" width="300" height="260" rx="20" fill="#fff" stroke="#d8e4eb" stroke-width="8"/>
  <rect x="310" y="270" width="60" height="160" rx="10" fill="#5aa1bd"/>
  <rect x="260" y="320" width="160" height="60" rx="10" fill="#5aa1bd"/>
  <rect x="560" y="210" width="160" height="300" rx="18" fill="#f5fafc" stroke="#d8e4eb" stroke-width="8"/>
  <rect x="595" y="250" width="90" height="90" rx="16" fill="#8fc0d4"/>
  <rect x="590" y="360" width="100" height="20" rx="8" fill="#b4cfdd"/>
  <rect x="590" y="395" width="100" height="20" rx="8" fill="#b4cfdd"/>
  <rect x="800" y="250" width="190" height="90" rx="14" fill="#d6e8f1"/>
  <rect x="800" y="360" width="190" height="90" rx="14" fill="#d6e8f1"/>
  <text x="70" y="92" fill="#ffffff" font-family="Poppins, Arial, sans-serif" font-size="50" font-weight="700">Community First Aid Refill</text>
</svg>
