<svg xmlns="http://www.w3.org/2000/svg" width="1200" height="720" viewBox="0 0 1200 720" role="img" aria-label="School supplies drive">
  <defs>
    <linearGradient id="g1" x1="0" y1="0" x2="1" y2="1">
      <stop offset="0%" stop-color="#203a43"/>
      <stop offset="100%" stop-color="#2c5364"/>
    </linearGradient>
    <linearGradient id="desk" x1="0" y1="0" x2="0" y2="1">
      <stop offset="0%" stop-color="#c7965f"/>
      <stop offset="100%" stop-color="#9f6f3e"/>
    </linearGradient>
  </defs>
  <rect width="1200" height="720" fill="url(#g1)"/>
  <rect y="430" width="1200" height="290" fill="url(#desk)"/>
  <rect x="120" y="320" width="280" height="240" rx="16" fill="#f2d58a"/>
  <rect x="150" y="355" width="220" height="170" rx="10" fill="#fff3cf"/>
  <line x1="180" y1="390" x2="340" y2="390" stroke="#c9b28b" stroke-width="8"/>
  <line x1="180" y1="430" x2="340" y2="430" stroke="#c9b28b" stroke-width="8"/>
  <line x1="180" y1="470" x2="310" y2="470" stroke="#c9b28b" stroke-width="8"/>
  <rect x="470" y="300" width="160" height="300" rx="16" fill="#2f7f95"/>
  <rect x="500" y="340" width="100" height="220" rx="10" fill="#52a4bb"/>
  <polygon points="550,240 600,340 500,340" fill="#f7c65c"/>
  <rect x="700" y="350" width="320" height="190" rx="20" fill="#4a7d5f"/>
  <rect x="740" y="385" width="240" height="120" rx="12" fill="#78b68e"/>
  <text x="64" y="88" fill="#ffffff" font-family="Poppins, Arial, sans-serif" font-size="52" font-weight="700">School Supplies Drive</text>
</svg>
